<svg width="39" height="14" viewBox="0 0 39 14" fill="none" xmlns="http://www.w3.org/2000/svg">
<g id="4KOp Box">
<path id="Vector" d="M38.5007 8.29927C38.5007 9.13139 38.3586 9.89051 38.0816 10.5912C37.8046 11.2847 37.421 11.8905 36.9238 12.3942C36.4337 12.8978 35.8442 13.292 35.1694 13.5766C34.4946 13.8613 33.7559 14 32.9674 14H29.7142C28.9187 14 28.18 13.8613 27.5052 13.5766C26.8304 13.292 26.2408 12.8978 25.7507 12.3942C25.2606 11.8905 24.8699 11.2847 24.5929 10.5912C24.3159 9.89781 24.1738 9.13139 24.1738 8.29927V5.69343C24.1738 4.86861 24.3159 4.10949 24.5929 3.40876C24.877 2.70803 25.2606 2.10949 25.7578 1.60584C26.2479 1.10219 26.8375 0.708031 27.5123 0.423359C28.1871 0.138687 28.9258 0 29.7213 0H32.9745C33.7701 0 34.5017 0.145985 35.1765 0.430656C35.8513 0.715328 36.4337 1.10949 36.9309 1.61314C37.421 2.11679 37.8117 2.71533 38.0887 3.41606C38.3657 4.11679 38.5007 4.87591 38.5007 5.70073V8.29927ZM36.0999 5.69343C36.0999 5.20438 36.0217 4.76642 35.8726 4.36496C35.7234 3.9708 35.5103 3.62774 35.2333 3.35036C34.9563 3.06569 34.6295 2.84671 34.246 2.69343C33.8624 2.54015 33.4362 2.45985 32.9745 2.45985H29.7213C29.2525 2.45985 28.8263 2.54015 28.4428 2.69343C28.0592 2.84671 27.7254 3.06569 27.4483 3.35036C27.1713 3.63504 26.9582 3.9708 26.802 4.36496C26.6528 4.75913 26.5747 5.20438 26.5747 5.69343V8.29927C26.5747 8.78832 26.6528 9.22628 26.802 9.62774C26.9511 10.0219 27.1642 10.365 27.4412 10.6423C27.7183 10.927 28.0521 11.146 28.4357 11.2993C28.8192 11.4526 29.2454 11.5328 29.7142 11.5328H32.9532C33.422 11.5328 33.8482 11.4526 34.2318 11.2993C34.6153 11.146 34.9492 10.927 35.2262 10.6423C35.5032 10.3577 35.7163 10.0219 35.8726 9.62774C36.0217 9.23358 36.0999 8.78832 36.0999 8.29927V5.69343Z" fill="#1A1A1A"/>
<path id="Vector_2" d="M9.25097 5.7407L2.90083 5.7334V0.164062H0.5V6.97428C0.5 7.14216 0.528412 7.31005 0.59234 7.45603C0.656267 7.60932 0.741504 7.7407 0.84805 7.85019C0.954596 7.95968 1.08245 8.04727 1.23162 8.11297C1.38078 8.17866 1.53705 8.21516 1.71462 8.21516L9.25097 8.22246V5.7407Z" fill="#1A1A1A"/>
<path id="Vector_3" d="M19.854 13.8283L14.4912 8.31735C14.1573 7.97428 13.9727 7.52173 13.9727 7.03997C13.9727 6.55822 14.1573 6.10567 14.4912 5.7626L19.9392 0.164062H23.3345L16.6363 7.04727L23.235 13.8283H19.854Z" fill="#1A1A1A"/>
<path id="Vector_4" d="M12.8618 0.164062H10.4609V13.7918H12.8618V0.164062Z" fill="#1A1A1A"/>
</g>
</svg>
