<svg width="38" height="14" viewBox="0 0 38 14" fill="none" xmlns="http://www.w3.org/2000/svg">
<g id="8KO">
<path id="Vector" d="M36.3975 1.63013C35.8948 1.12514 35.2973 0.737255 34.6123 0.451827C33.9201 0.166398 33.1696 0.0273438 32.3608 0.0273438H29.0381C28.2293 0.0273438 27.4715 0.166398 26.7793 0.451827C26.087 0.737255 25.4895 1.13246 24.9868 1.63013C24.484 2.13512 24.0905 2.73525 23.799 3.43053C23.5149 4.1258 23.3691 4.88694 23.3691 5.71395V8.31208C23.3691 9.13909 23.5149 9.90023 23.799 10.5955C24.0832 11.2908 24.4767 11.8909 24.9795 12.3959C25.4822 12.9009 26.0797 13.2961 26.772 13.5742C27.4642 13.8523 28.2147 13.9987 29.0308 13.9987H32.3535C33.1623 13.9987 33.9128 13.8596 34.605 13.5815C35.2973 13.3034 35.8875 12.9082 36.3975 12.4032C36.9003 11.8982 37.2938 11.2981 37.578 10.6028C37.8621 9.90755 38.0006 9.14641 38.0006 8.3194V5.72127C38.0006 4.90158 37.8621 4.14044 37.578 3.43784C37.2938 2.73525 36.9003 2.13512 36.3975 1.63013ZM35.5377 8.31208C35.5377 8.79511 35.4576 9.24155 35.3046 9.63676C35.1515 10.032 34.9329 10.3686 34.6488 10.6541C34.3646 10.9322 34.0294 11.1517 33.6359 11.3054C33.2425 11.4591 32.8053 11.5396 32.3316 11.5396H29.0308C28.5499 11.5396 28.12 11.4591 27.7265 11.3054C27.333 11.1517 26.9979 10.9322 26.7137 10.6541C26.4295 10.3759 26.2109 10.032 26.0579 9.63676C25.9049 9.24155 25.8247 8.80243 25.8247 8.31208V5.71395C25.8247 5.2236 25.9049 4.78448 26.0579 4.38927C26.2109 3.99406 26.4295 3.6574 26.7137 3.37198C26.9979 3.09387 27.333 2.87431 27.7265 2.72061C28.12 2.56692 28.5572 2.48642 29.0308 2.48642H32.3535C32.8271 2.48642 33.257 2.56692 33.6505 2.72061C34.044 2.87431 34.3792 3.09387 34.6633 3.37198C34.9402 3.65009 35.1588 3.99406 35.3118 4.38927C35.4649 4.78448 35.545 5.2236 35.545 5.71395L35.5377 8.31208Z" fill="#1A1A1A"/>
<path id="Vector_2" d="M19.6396 0.157215L13.7083 5.8731C13.3658 6.21707 13.293 6.55373 13.293 6.80989C13.293 7.088 13.3658 7.41002 13.7083 7.74668L19.5521 13.8578L23.0278 13.8504L16.2586 6.80257L23.1299 0.142578L19.6396 0.157215Z" fill="#1A1A1A"/>
<path id="Vector_3" d="M12.5183 3.23485V0H10.0846H8.36499H3.35183C2.36085 0 1.47189 0.402527 0.845243 1.12708C0.291463 1.7638 0 2.57617 0 3.45441V4.69859C0 5.78175 0.415335 6.52825 0.80881 6.98933C0.27689 7.62605 0 8.41647 0 9.28007V10.5242C0 11.7245 0.510061 12.5149 0.939969 12.9614C1.56661 13.62 2.42643 13.9787 3.35183 13.9787H9.18838C10.2231 13.9787 11.1339 13.5542 11.746 12.793C12.256 12.1636 12.5183 11.3805 12.5183 10.5242V9.28007C12.5183 8.18227 12.1103 7.44309 11.7314 6.98201C11.7387 6.97469 11.7387 6.97469 11.746 6.96737C12.256 6.33797 12.5183 5.55487 12.5183 4.69859V3.45441C12.5183 3.38123 12.5183 3.30804 12.5183 3.23485ZM10.0555 10.495C10.0555 10.8024 9.97533 11.0585 9.80773 11.2708C9.64014 11.4757 9.39969 11.5781 9.07908 11.5781H3.46113C3.17695 11.5781 2.93649 11.483 2.74704 11.2854C2.55759 11.0878 2.46286 10.8243 2.46286 10.495V9.30203C2.46286 8.99465 2.5503 8.73849 2.73247 8.52625C2.90735 8.32133 3.15509 8.21887 3.46113 8.21887H9.07908C9.37783 8.21887 9.61828 8.31401 9.79316 8.50429C9.96804 8.69458 10.0555 8.95805 10.0555 9.30203V10.495ZM10.0555 4.67663C10.0555 4.98401 9.97533 5.24017 9.80773 5.45241C9.64014 5.65733 9.39969 5.75979 9.07908 5.75979H3.46113C3.17695 5.75979 2.93649 5.66465 2.74704 5.46705C2.55759 5.26944 2.46286 5.00597 2.46286 4.67663V3.47637C2.46286 3.16898 2.5503 2.91283 2.73247 2.70059C2.90735 2.49567 3.15509 2.39321 3.46113 2.39321H9.07908C9.11551 2.39321 9.14466 2.39321 9.1738 2.40052H10.0482V2.61277V3.46173C10.0482 3.46905 10.0482 3.47637 10.0482 3.48369V4.67663H10.0555Z" fill="#1A1A1A"/>
</g>
</svg>
