<svg viewBox="0 0 47 14" fill="none" xmlns="http://www.w3.org/2000/svg">
<g id="8KOp">
<path id="Vector" d="M36.1701 1.63024C35.6774 1.12521 35.0918 0.737302 34.4206 0.451855C33.7422 0.166409 33.0067 0.0273438 32.2141 0.0273438H28.9579C28.1653 0.0273438 27.4226 0.166409 26.7442 0.451855C26.0659 0.737302 25.4803 1.13253 24.9876 1.63024C24.4949 2.13526 24.1093 2.73543 23.8237 3.43075C23.5452 4.12606 23.4023 4.88726 23.4023 5.71432V8.31262C23.4023 9.13968 23.5452 9.90087 23.8237 10.5962C24.1021 11.2915 24.4877 11.8917 24.9805 12.3967C25.4732 12.9017 26.0587 13.297 26.7371 13.5751C27.4155 13.8532 28.151 13.9996 28.9507 13.9996H32.207C32.9996 13.9996 33.7351 13.8605 34.4135 13.5824C35.0918 13.3043 35.6702 12.909 36.1701 12.404C36.6628 11.899 37.0484 11.2988 37.3269 10.6035C37.6054 9.90819 37.7411 9.147 37.7411 8.31993V5.72164C37.7411 4.90189 37.6054 4.1407 37.3269 3.43807C37.0484 2.73543 36.6628 2.13526 36.1701 1.63024ZM35.3275 8.31262C35.3275 8.79568 35.2489 9.24215 35.099 9.63738C34.949 10.0326 34.7348 10.3693 34.4563 10.6547C34.1778 10.9329 33.8493 11.1524 33.4637 11.3061C33.0781 11.4598 32.6497 11.5404 32.1855 11.5404H28.9507C28.4795 11.5404 28.0581 11.4598 27.6725 11.3061C27.2869 11.1524 26.9585 10.9329 26.68 10.6547C26.4015 10.3766 26.1873 10.0326 26.0373 9.63738C25.8873 9.24215 25.8088 8.803 25.8088 8.31262V5.71432C25.8088 5.22394 25.8873 4.78479 26.0373 4.38955C26.1873 3.99432 26.4015 3.65764 26.68 3.37219C26.9585 3.09407 27.2869 2.87449 27.6725 2.72079C28.0581 2.56709 28.4866 2.48658 28.9507 2.48658H32.207C32.6711 2.48658 33.0924 2.56709 33.478 2.72079C33.8636 2.87449 34.1921 3.09407 34.4706 3.37219C34.7419 3.65032 34.9562 3.99432 35.1061 4.38955C35.2561 4.78479 35.3346 5.22394 35.3346 5.71432L35.3275 8.31262Z" fill="#fff"/>
<path id="Vector_2" d="M19.7431 0.165523L13.9305 5.88177C13.5948 6.22577 13.5234 6.56245 13.5234 6.81862C13.5234 7.09675 13.5948 7.41879 13.9305 7.75547L19.6574 13.867L23.0635 13.8596L16.4226 6.81862L23.1564 0.158203L19.7431 0.165523Z" fill="#fff"/>
<path id="Vector_3" d="M12.7679 3.23506V0H10.3829H8.69764H3.78477C2.81362 0 1.94244 0.395235 1.32833 1.11983C0.785632 1.77123 0.5 2.57634 0.5 3.46196V4.70621C0.5 5.78944 0.907026 6.52868 1.29263 6.9971C0.77135 7.63387 0.5 8.41701 0.5 9.28799V10.5322C0.5 11.7326 0.999856 12.5231 1.42116 12.9695C2.03527 13.6282 2.87789 13.9869 3.78477 13.9869H9.50455C10.5185 13.9869 11.4111 13.5624 12.011 12.8012C12.5108 12.1717 12.7679 11.3886 12.7679 10.5322V9.28799C12.7679 8.19012 12.368 7.45089 11.9967 6.98978C12.0038 6.98246 12.0038 6.98246 12.011 6.97514C12.5108 6.3457 12.7679 5.56255 12.7679 4.70621V3.46196C12.7679 3.38876 12.7679 3.30825 12.7679 3.23506ZM10.3543 10.503C10.3543 10.8104 10.2758 11.0665 10.1115 11.2788C9.94728 11.4837 9.71163 11.5862 9.39744 11.5862H3.89188C3.61339 11.5862 3.37774 11.4911 3.19208 11.2934C3.00642 11.0958 2.91359 10.8323 2.91359 10.503V9.30995C2.91359 9.00255 2.99928 8.74638 3.1778 8.53412C3.34918 8.32919 3.59197 8.22672 3.89188 8.22672H9.39744C9.69021 8.22672 9.92586 8.32187 10.0972 8.51217C10.2686 8.70246 10.3543 8.96595 10.3543 9.30995V10.503ZM10.3543 4.68425C10.3543 4.99166 10.2758 5.24783 10.1115 5.46008C9.94728 5.66502 9.71163 5.76749 9.39744 5.76749H3.89188C3.61339 5.76749 3.37774 5.67234 3.19208 5.47472C3.00642 5.2771 2.91359 5.01361 2.91359 4.68425V3.48391C2.91359 3.17651 2.99928 2.92034 3.1778 2.70808C3.34918 2.50315 3.59197 2.40068 3.89188 2.40068H9.39744C9.43314 2.40068 9.46171 2.40068 9.49027 2.408H10.3472V2.62025V3.46927C10.3472 3.47659 10.3472 3.48391 10.3472 3.49123V4.68425H10.3543Z" fill="#fff"/>
<path id="Vector_4" d="M46.5006 3.05922C46.5006 3.35928 46.4649 3.62275 46.3935 3.85695C46.3221 4.09114 46.2221 4.29606 46.1007 4.47171C45.9793 4.64735 45.8365 4.80104 45.6794 4.93278C45.5223 5.0572 45.3509 5.15966 45.1796 5.24016C45.0082 5.32067 44.8297 5.37921 44.6511 5.41581C44.4726 5.4524 44.3084 5.47435 44.1513 5.47435H41.2807V4.17165H44.1513C44.3155 4.15701 44.4583 4.12773 44.594 4.06919C44.7297 4.01064 44.8368 3.93745 44.9368 3.84963C45.0296 3.75449 45.101 3.64471 45.1581 3.51297C45.2081 3.38124 45.2367 3.23486 45.2367 3.06654V2.47373C45.2224 2.31272 45.1867 2.15903 45.1367 2.01998C45.0867 1.88093 45.0153 1.76383 44.9225 1.66868C44.8297 1.57354 44.7225 1.49304 44.6012 1.44181C44.4798 1.39058 44.3298 1.36131 44.1584 1.36131H41.295C41.1236 1.36131 40.9951 1.40522 40.9094 1.49304C40.8237 1.58086 40.7808 1.7126 40.7808 1.88093V7.23082H39.5098V1.88093C39.5098 1.54427 39.5669 1.26616 39.6883 1.03197C39.8097 0.797773 39.9525 0.607489 40.131 0.468436C40.3095 0.322064 40.5023 0.219604 40.7094 0.153737C40.9165 0.0878695 41.1093 0.0585938 41.2878 0.0585938H44.1584C44.4441 0.0585938 44.7011 0.0951867 44.9296 0.168373C45.1581 0.241559 45.3581 0.344019 45.5295 0.468436C45.7008 0.592852 45.8508 0.739223 45.9722 0.900232C46.0936 1.06124 46.1936 1.23689 46.2721 1.41253C46.3507 1.58818 46.4078 1.77115 46.4435 1.95411C46.4792 2.13708 46.5006 2.3054 46.5006 2.46641V3.05922Z" fill="#fff"/>
</g>
</svg>
