<svg viewBox="0 0 49 14" fill="none" xmlns="http://www.w3.org/2000/svg">
<g id="4KOp">
<path id="Vector" d="M39.5429 8.29927C39.5429 9.13139 39.397 9.89051 39.1123 10.5912C38.8277 11.2847 38.4336 11.8905 37.9227 12.3942C37.4191 12.8978 36.8134 13.292 36.12 13.5766C35.4267 13.8613 34.6677 14 33.8576 14H30.5149C29.6975 14 28.9385 13.8613 28.2452 13.5766C27.5518 13.292 26.9461 12.8978 26.4425 12.3942C25.9389 11.8905 25.5375 11.2847 25.2529 10.5912C24.9682 9.89781 24.8223 9.13139 24.8223 8.29927V5.69343C24.8223 4.86861 24.9682 4.10949 25.2529 3.40876C25.5448 2.70803 25.9389 2.10949 26.4498 1.60584C26.9534 1.10219 27.5591 0.708031 28.2525 0.423359C28.9458 0.138687 29.7048 0 30.5222 0H33.8649C34.6823 0 35.434 0.145985 36.1273 0.430656C36.8207 0.715328 37.4191 1.10949 37.93 1.61314C38.4336 2.11679 38.835 2.71533 39.1196 3.41606C39.4043 4.11679 39.5429 4.87591 39.5429 5.70073V8.29927ZM37.0761 5.69343C37.0761 5.20438 36.9958 4.76642 36.8426 4.36496C36.6893 3.9708 36.4703 3.62774 36.1857 3.35036C35.9011 3.06569 35.5654 2.84671 35.1713 2.69343C34.7771 2.54015 34.3392 2.45985 33.8649 2.45985H30.5222C30.0405 2.45985 29.6026 2.54015 29.2085 2.69343C28.8144 2.84671 28.4714 3.06569 28.1868 3.35036C27.9021 3.63504 27.6832 3.9708 27.5226 4.36496C27.3694 4.75913 27.2891 5.20438 27.2891 5.69343V8.29927C27.2891 8.78832 27.3694 9.22628 27.5226 9.62774C27.6759 10.0219 27.8948 10.365 28.1795 10.6423C28.4641 10.927 28.8071 11.146 29.2012 11.2993C29.5954 11.4526 30.0332 11.5328 30.5149 11.5328H33.843C34.3246 11.5328 34.7625 11.4526 35.1567 11.2993C35.5508 11.146 35.8938 10.927 36.1784 10.6423C36.463 10.3577 36.682 10.0219 36.8426 9.62774C36.9958 9.23358 37.0761 8.78832 37.0761 8.29927V5.69343Z" fill="#fff"/>
<path id="Vector_2" d="M9.4915 5.7407L2.96682 5.7334V0.164062H0.5V6.97428C0.5 7.14216 0.529193 7.31005 0.594878 7.45603C0.660562 7.60932 0.748142 7.7407 0.857616 7.85019C0.967091 7.95968 1.09846 8.04727 1.25172 8.11297C1.40499 8.17866 1.56555 8.21516 1.74801 8.21516L9.4915 8.22246V5.7407Z" fill="#fff"/>
<path id="Vector_3" d="M20.3867 13.8283L14.8765 8.31735C14.5335 7.97428 14.3438 7.52173 14.3438 7.03997C14.3438 6.55822 14.5335 6.10567 14.8765 5.7626L20.4743 0.164062H23.9629L17.0806 7.04727L23.8607 13.8283H20.3867Z" fill="#fff"/>
<path id="Vector_4" d="M13.2012 0.164062H10.7344V13.7918H13.2012V0.164062Z" fill="#fff"/>
<path id="Vector_5" d="M48.5005 3.04739C48.5005 3.34666 48.464 3.60943 48.391 3.84301C48.318 4.07658 48.2159 4.28096 48.0918 4.45615C47.9677 4.63133 47.8218 4.78461 47.6612 4.916C47.5006 5.04009 47.3255 5.14228 47.1503 5.22257C46.9752 5.30286 46.7927 5.36125 46.6102 5.39775C46.4278 5.43425 46.2599 5.45615 46.0994 5.45615H43.1654V4.15688H46.0994C46.2672 4.14228 46.4132 4.11308 46.5519 4.05469C46.6905 3.99629 46.8 3.9233 46.9022 3.83571C46.9971 3.74082 47.07 3.63133 47.1284 3.49994C47.1795 3.36855 47.2087 3.22257 47.2087 3.05469V2.46345C47.1941 2.30286 47.1576 2.14958 47.1065 2.01089C47.0554 1.8722 46.9825 1.75542 46.8876 1.66053C46.7927 1.56564 46.6832 1.48534 46.5592 1.43425C46.4351 1.38315 46.2818 1.35396 46.1067 1.35396H43.18C43.0049 1.35396 42.8735 1.39775 42.7859 1.48534C42.6984 1.57294 42.6546 1.70432 42.6546 1.87221V7.20797H41.3555V1.87221C41.3555 1.53644 41.4139 1.25907 41.5379 1.02549C41.662 0.791913 41.808 0.602133 41.9904 0.463447C42.1729 0.317462 42.3699 0.215271 42.5816 0.149577C42.7932 0.0838837 42.9903 0.0546875 43.1727 0.0546875H46.1067C46.3986 0.0546875 46.6613 0.0911838 46.8949 0.164177C47.1284 0.237169 47.3328 0.339359 47.5079 0.463447C47.6831 0.587535 47.8364 0.733519 47.9604 0.894103C48.0845 1.05469 48.1867 1.22987 48.267 1.40505C48.3472 1.58023 48.4056 1.76272 48.4421 1.9452C48.4786 2.12768 48.5005 2.29556 48.5005 2.45615V3.04739Z" fill="#fff"/>
</g>
</svg>
